<svg xmlns="http://www.w3.org/2000/svg" viewBox="0 -67.5 172 72" width="358" height="150" role="img" aria-label="Doco">
  <title>Doco</title>
  <!-- "Doco" in Chomsky, the blackletter after the New York Times nameplate,
       converted to outlines (no font dependency). -->
  <path fill="#9945A1" d="M7.42-11.86L8.20-9.86C15.99-11.81 23.26-16.96 23.26-27.25L23.26-35.75L23.27-42.25C23.27-46.84 24.78-49.25 27.27-51.50L29.88-51.50C27.20-48.64 26.23-44.56 26.23-39.25L26.23-24.25C26.23-18.06 22.61-14.98 19.34-11.83C11.34-9.52 5.47-3.97 2 2.63L4.38 2.63C8.89-1.49 14.97-3.84 21.07-3.84C26.38-3.84 31.31-2.18 35.46 0.79L56.29-10.67C59.39-16.94 61.78-25.27 61.78-33.95C61.78-49.87 55.58-61.67 38.13-61.67L15.38-61.67C12.12-61.67 9.78-62.68 9.25-65.40L7.46-65.46C5.94-59.71 5.93-51.50 12.67-51.50L24.28-51.50L17.68-47.21C14.70-45.27 12.51-43.38 12.51-38.46C12.51-37.79 12.51-37.12 12.51-36.45C7.27-35.59 2.85-33.63 2.85-27.16C2.85-25.46 3.30-23.75 4.13-22.26L5.72-22.26C5.42-25.17 7.08-27.08 10.49-27.08C11.17-27.08 11.84-27.08 12.51-27.08C12.51-27.01 12.51-26.93 12.51-26.86C12.51-19.92 12.05-14.51 7.42-11.86M35.31-12.01C35.31-15.64 35.31-19.27 35.31-22.90L50.48-30.58C50.43-21.50 48.59-13.90 45.79-6.92C42.69-9.31 39.10-11.03 35.31-12.01M35.31-51.50C37.20-51.48 39.10-51.36 40.88-50.74C45.05-49.29 47.62-45.97 49.04-41.59L35.31-34.65C35.31-40.26 35.31-45.88 35.31-51.50M32.92-12.53C31.21-12.83 29.47-12.98 27.73-12.98C26.28-12.98 24.87-12.89 23.52-12.70C26.22-15.57 28.56-18.96 28.56-24.25L28.56-39.25C28.57-44.84 29.53-48.65 32.92-51.08C32.92-38.23 32.92-25.38 32.92-12.53M35.31-31.97L49.68-39.23C50.08-37.36 50.32-35.35 50.42-33.24L35.31-25.57C35.31-27.71 35.31-29.84 35.31-31.97M79.80-12.77L79.80-36.73L89.39-30.34L89.39-6.37M66.22-5.64L69.68-8.45L81.40 0.02L99.77-11.17L99.77-33.94L87.79-43.12L69.02-32.34C69.02-25.20 69.02-18.06 69.02-10.91L64.75-7.45M118.03-14.50C120.51-9.94 125.04-8.81 127.44-8.75L132.25-12.22L133.33-10.76L121.07 0L119.90 0L107.32-8.57L107.32-33.49L124.53-43.08L133.36-36L125.44-30L118.03-36.17M149.72-12.77L149.72-36.73L159.30-30.34L159.30-6.37M136.14-5.64L139.60-8.45L151.32 0.02L169.69-11.17L169.69-33.94L157.71-43.12L138.93-32.34C138.93-25.20 138.93-18.06 138.93-10.91L134.67-7.45"/>
</svg>
